<svg xmlns="http://www.w3.org/2000/svg" viewBox="0 0 512 512" role="img" aria-label="Lumina Studio">
  <defs>
    <linearGradient id="bg" x1="0" y1="0" x2="1" y2="1">
      <stop offset="0" stop-color="#8f2f42"/>
      <stop offset="1" stop-color="#5e1c2b"/>
    </linearGradient>
    <linearGradient id="flame" x1="0" y1="1" x2="0" y2="0">
      <stop offset="0" stop-color="#f5c453"/>
      <stop offset="1" stop-color="#fff3d6"/>
    </linearGradient>
  </defs>
  <rect width="512" height="512" rx="112" fill="url(#bg)"/>
  <g transform="translate(256 290)">
    <path d="M0 -150 C 55 -95 92 -45 92 10 C 92 62 50 96 0 96 C -50 96 -92 62 -92 10 C -92 -45 -55 -95 0 -150 Z" fill="url(#flame)"/>
    <circle cx="-34" cy="24" r="13" fill="#8f2f42"/>
    <circle cx="0" cy="46" r="13" fill="#8f2f42"/>
    <circle cx="34" cy="24" r="13" fill="#8f2f42"/>
    <path d="M-8 -130 Q -4 -84 -16 -64 Q -6 -78 4 -66 Q -2 -46 -12 -32 Q 10 -60 16 -34 Q 30 -68 24 -102 Q 34 -86 38 -70" stroke="#7a2434" stroke-width="9" fill="none" stroke-linecap="round"/>
  </g>
</svg>
